<?xml version="1.0" encoding="UTF-8" standalone="no"?>
<svg
   version="1.1"
   id="svg2"
   xml:space="preserve"
   width="953.06665"
   height="120"
   viewBox="0 0 953.06665 120"
   sodipodi:docname="Comme des Garcons logo.svg"
   inkscape:version="1.1.1 (3bf5ae0d25, 2021-09-20)"
   xmlns:inkscape="http://www.inkscape.org/namespaces/inkscape"
   xmlns:sodipodi="http://sodipodi.sourceforge.net/DTD/sodipodi-0.dtd"
   xmlns="http://www.w3.org/2000/svg"
   xmlns:svg="http://www.w3.org/2000/svg"
   xmlns:rdf="http://www.w3.org/1999/02/22-rdf-syntax-ns#"
   xmlns:cc="http://creativecommons.org/ns#"
   xmlns:dc="http://purl.org/dc/elements/1.1/"><metadata
     id="metadata8"><rdf:RDF><cc:Work
         rdf:about=""><dc:format>image/svg+xml</dc:format><dc:type
           rdf:resource="http://purl.org/dc/dcmitype/StillImage" /></cc:Work></rdf:RDF></metadata><defs
     id="defs6" /><sodipodi:namedview
     pagecolor="#ffffff"
     bordercolor="#666666"
     borderopacity="1"
     objecttolerance="10"
     gridtolerance="10"
     guidetolerance="10"
     inkscape:pageopacity="0"
     inkscape:pageshadow="2"
     inkscape:window-width="1920"
     inkscape:window-height="1001"
     id="namedview4"
     inkscape:pagecheckerboard="0"
     showgrid="false"
     fit-margin-top="10"
     fit-margin-right="10"
     fit-margin-bottom="10"
     fit-margin-left="10"
     inkscape:zoom="1.0374183"
     inkscape:cx="475.70013"
     inkscape:cy="-236.64515"
     inkscape:window-x="-9"
     inkscape:window-y="-9"
     inkscape:window-maximized="1"
     inkscape:current-layer="g12" /><g
     id="g10"
     inkscape:groupmode="layer"
     inkscape:label="ink_ext_XXXXXX"
     transform="matrix(1.3333333,0,0,-1.3333333,10,110)"><g
       id="g12"
       transform="scale(0.1)"><path
         d="m 332.004,582 c -6.004,46 -50,82 -102.004,82 -92.004,0 -126,-78 -126,-160 0,-78 33.996,-156 126,-156 62.004,0 97.996,44 106,104 H 436 C 426,336 346,262 230,262 86,262 0,370 0,504.012 0,642 84,750 230,750 332.004,750 417.996,690 432.004,582 h -100 v 0"
         style="fill:#231f20;fill-opacity:1;fill-rule:nonzero;stroke:none"
         id="path16" /><path
         d="m 686,348 c 90,0 124,78 124,156 0,82 -34,160 -124,160 C 596,664 562.004,586 562.004,504 560,426 594,348 686,348 Z m 0,402 C 827.996,750 910,642 910,504 910,370 826,262 686,262 544,262 462.004,370 462.004,504 460,642 544,750 686,750"
         style="fill:#231f20;fill-opacity:1;fill-rule:nonzero;stroke:none"
         id="path18" /><path
         d="m 944,724 h 136 l 104,-310 h 2 l 98,310 h 136 V 274 h -90 v 320 h -2 L 1220,274 h -74 l -108,316 h -2 V 274 h -90 v 450 h -2"
         style="fill:#231f20;fill-opacity:1;fill-rule:nonzero;stroke:none"
         id="path20" /><path
         d="m 1458,724 h 136 l 104,-310 h 2 l 98,310 h 136 V 274 h -90 v 320 h -2 L 1734,274 h -74 l -108,316 h -2 V 274 h -90 v 450 h -2"
         style="fill:#231f20;fill-opacity:1;fill-rule:nonzero;stroke:none"
         id="path22" /><path
         d="m 2004,724 h 336 v -84 h -238 v -96 h 218 V 468 H 2102 V 358 h 242 v -84 h -342 v 450 h 2"
         style="fill:#231f20;fill-opacity:1;fill-rule:nonzero;stroke:none"
         id="path24" /><path
         d="m 4244,320 c -36,-46 -82,-64 -126,-64 -142,0 -224,108 -224,242 0,138 84,246 224,246 94,0 182,-58 192,-164 h -96 c -12,52 -50,78 -96,78 -90,0 -124,-78 -124,-160 0,-78 34,-156 124,-156 66,0 104,36 108,100 h -102 v 76 h 192 V 266 h -64 l -8,54"
         style="fill:#231f20;fill-opacity:1;fill-rule:nonzero;stroke:none"
         id="path26" /><path
         d="m 4510,448 h 114 l -56,172 h -2 z m 10,286 h 100 l 166,-466 h -102 l -34,104 h -166 l -34,-104 h -98 l 168,466"
         style="fill:#231f20;fill-opacity:1;fill-rule:nonzero;stroke:none"
         id="path28" /><path
         d="m 4916,524 h 108 c 44,0 68,20 68,66 0,46 -24,64 -68,64 h -108 z m -98,210 h 242 c 80,0 132,-58 132,-128 0,-54 -22,-96 -70,-116 v -2 c 48,-14 62,-62 66,-110 2,-30 2,-84 18,-110 h -98 c -12,30 -10,74 -16,112 -6,50 -26,70 -74,70 h -98 V 268 h -98 v 466 h -4"
         style="fill:#231f20;fill-opacity:1;fill-rule:nonzero;stroke:none"
         id="path30" /><path
         d="m 5550,578 c -6,46 -50,82 -100,82 -90,0 -124,-78 -124,-160 0,-78 34,-156 124,-156 62,0 96,44 104,104 h 98 c -10,-116 -88,-190 -200,-190 -142,0 -224,108 -224,242 0,138 84,246 224,246 100,0 184,-60 198,-168 h -100 v 0"
         style="fill:#231f20;fill-opacity:1;fill-rule:nonzero;stroke:none"
         id="path32" /><path
         d="m 5916,342 c 90,0 122,78 122,156 0,82 -34,160 -122,160 -90,0 -122,-78 -122,-160 0,-76 32,-156 122,-156 z m 0,404 c 140,0 222,-108 222,-246 0,-134 -82,-242 -222,-242 -140,0 -222,108 -222,242 0,138 82,246 222,246"
         style="fill:#231f20;fill-opacity:1;fill-rule:nonzero;stroke:none"
         id="path34" /><path
         d="m 6190,734 h 98 l 188,-312 h 2 v 312 h 94 V 268 h -100 l -188,312 h -2 V 268 h -94 v 466 h 2"
         style="fill:#231f20;fill-opacity:1;fill-rule:nonzero;stroke:none"
         id="path36" /><path
         d="m 6712,422 c 0,-62 48,-86 102,-86 36,0 88,10 88,58 0,50 -68,58 -136,78 -68,18 -136,46 -136,132 0,96 88,142 170,142 96,0 184,-42 184,-150 h -98 c -4,56 -42,70 -90,70 -32,0 -70,-14 -70,-52 0,-36 22,-40 136,-70 34,-8 136,-30 136,-136 0,-86 -66,-150 -190,-150 -102,0 -196,50 -194,166 h 98 v -2"
         style="fill:#231f20;fill-opacity:1;fill-rule:nonzero;stroke:none"
         id="path38" /><path
         d="m 5472,136 74,28 18,-48 -74,-24 46,-62 -42,-30 -46,64 -44,-64 -42,30 46,62 -74,24 18,48 72,-28 v 78 h 50 v -78 h -2"
         style="fill:#231f20;fill-opacity:1;fill-rule:nonzero;stroke:none"
         id="path40" /><path
         d="m 2774,550 c -58,0 -78,-50 -78,-104 0,-50 24,-104 78,-104 60,0 76,52 76,106 0,52 -18,102 -76,102 z m 78,-226 v 0 c -22,-36 -58,-50 -100,-50 -98,0 -146,84 -146,174 0,88 48,170 144,170 38,0 76,-16 98,-48 v 0 h 2 v 164 h 90 V 284 h -86 v 40 h -2"
         style="fill:#231f20;fill-opacity:1;fill-rule:nonzero;stroke:none"
         id="path42" /><path
         d="m 3208,480 c -8,46 -28,70 -72,70 -56,0 -74,-44 -74,-70 z m -146,-56 c 2,-56 30,-82 80,-82 36,0 64,22 70,42 h 78 c -26,-76 -78,-110 -152,-110 -102,0 -166,70 -166,172 0,98 68,172 166,172 110,0 164,-94 158,-194 h -234"
         style="fill:#231f20;fill-opacity:1;fill-rule:nonzero;stroke:none"
         id="path44" /><path
         d="m 3416,388 c 0,-40 34,-54 68,-54 26,0 58,10 58,42 0,28 -38,36 -102,50 -52,12 -104,30 -104,86 0,84 72,104 142,104 72,0 136,-24 144,-104 h -82 c -2,34 -28,44 -62,44 -20,0 -50,-4 -50,-30 0,-32 50,-36 102,-48 52,-12 104,-30 104,-92 0,-86 -74,-114 -148,-114 -76,0 -150,28 -154,114 h 84 v 2"
         style="fill:#231f20;fill-opacity:1;fill-rule:nonzero;stroke:none"
         id="path46" /></g></g></svg>
